<svg width="1440" height="881" viewBox="0 0 1440 881" fill="none" xmlns="http://www.w3.org/2000/svg">
<g clip-path="url(#clip0_1_23)">
<rect width="1440" height="880.748" fill="#F9F5F0"/>
<path fill-rule="evenodd" clip-rule="evenodd" d="M1120.67 355.195C1083.9 375.283 1051.57 402.843 1025.56 435.913C1035 430.231 1050.27 435.428 1108.44 457.865C1145.18 472.035 1163.19 496.265 1182.18 521.826C1213.57 564.069 1247.67 609.945 1373.46 620.049C1481.38 628.716 1538.98 661.995 1566.58 692.803C1569.87 674.222 1571.59 655.075 1571.59 635.514C1571.59 619.398 1570.42 603.563 1568.17 588.093C1510.75 569.21 1477.23 555.602 1454.02 546.179C1422.17 533.248 1409.72 528.194 1381.54 528.194C1331.06 528.194 1217.48 463.343 1192.24 414.691C1181.69 394.357 1152.32 373.138 1120.67 355.195ZM1517.11 455.256C1499.13 451.677 1479.24 448.891 1457.26 447.126C1331.46 437.022 1297.37 391.146 1265.98 348.904C1258.35 338.634 1250.88 328.579 1242.29 319.306C1249.56 318.775 1256.9 318.505 1264.3 318.505C1369.1 318.505 1461.65 372.627 1517.11 455.256ZM1264.3 952.523C1384.89 952.523 1489.26 880.857 1539.58 776.556C1528.31 774.375 1515.1 770.943 1499.66 765.983C1432.77 744.493 1395.43 729.332 1370.23 719.102C1338.37 706.171 1325.93 701.117 1297.74 701.117C1247.26 701.117 1133.68 636.266 1108.44 587.613C1092.1 556.115 1030.58 522.491 985.416 502.213C967.185 542.736 957.009 587.899 957.009 635.514C957.009 810.593 1094.59 952.523 1264.3 952.523Z" fill="#EEE8D8"/>
</g>
<defs>
<clipPath id="clip0_1_23">
<rect width="1440" height="880.748" fill="white"/>
</clipPath>
</defs>
</svg>
