<svg width="144" height="39" viewBox="0 0 144 39" fill="none" xmlns="http://www.w3.org/2000/svg">
<path d="M49.7922 28.3179V11.4506H56.6588C58.4293 11.4506 59.793 11.8812 60.75 12.7425C61.707 13.5879 62.1855 14.7682 62.1855 16.2835C62.1855 17.7668 61.707 18.9472 60.75 19.8244C59.793 20.6857 58.4293 21.1164 56.6588 21.1164H51.778V28.3179H49.7922ZM51.778 19.4655H56.4674C57.6956 19.4655 58.6207 19.1864 59.2427 18.6282C59.8807 18.0699 60.1997 17.2883 60.1997 16.2835C60.1997 15.2627 59.8807 14.4731 59.2427 13.9149C58.6207 13.3566 57.6956 13.0775 56.4674 13.0775H51.778V19.4655ZM65.161 28.3179V10.7089H67.099V28.3179H65.161ZM75.4317 28.5332C74.363 28.5332 73.4299 28.286 72.6324 27.7915C71.8349 27.2811 71.2129 26.5634 70.7663 25.6382C70.3356 24.7131 70.1203 23.6046 70.1203 22.3126C70.1203 21.0047 70.3356 19.8882 70.7663 18.9631C71.2129 18.038 71.8349 17.3282 72.6324 16.8338C73.4299 16.3393 74.363 16.0921 75.4317 16.0921C76.5163 16.0921 77.4494 16.3712 78.2309 16.9295C79.0284 17.4718 79.5548 18.2134 79.81 19.1545H79.5229L79.7861 16.3074H81.6522C81.6044 16.77 81.5565 17.2405 81.5087 17.719C81.4768 18.1815 81.4608 18.6361 81.4608 19.0827V28.3179H79.5229V25.4947H79.7861C79.5309 26.4358 79.0045 27.1774 78.207 27.7197C77.4095 28.262 76.4844 28.5332 75.4317 28.5332ZM75.8145 26.9541C76.9629 26.9541 77.8721 26.5634 78.542 25.7818C79.2119 24.9843 79.5468 23.8279 79.5468 22.3126C79.5468 20.7814 79.2119 19.625 78.542 18.8435C77.8721 18.046 76.9629 17.6472 75.8145 17.6472C74.682 17.6472 73.7729 18.046 73.087 18.8435C72.4171 19.625 72.0822 20.7814 72.0822 22.3126C72.0822 23.8279 72.4171 24.9843 73.087 25.7818C73.7729 26.5634 74.682 26.9541 75.8145 26.9541ZM84.6124 33.7489L84.1579 32.1459C84.9075 31.9705 85.5296 31.7631 86.024 31.5239C86.5344 31.3006 86.9571 30.9975 87.2921 30.6147C87.627 30.2319 87.9141 29.7534 88.1534 29.1792L88.7754 27.7676L88.7276 28.581L83.488 16.3074H85.5934L89.9238 26.8584H89.3018L93.5844 16.3074H95.618L90.0674 29.3227C89.7484 30.0883 89.3975 30.7263 89.0147 31.2367C88.6319 31.7631 88.2172 32.1858 87.7706 32.5048C87.3399 32.8397 86.8614 33.1029 86.3351 33.2943C85.8087 33.4857 85.2345 33.6372 84.6124 33.7489ZM102.686 28.5332C101.506 28.5332 100.477 28.278 99.5995 27.7676C98.7382 27.2572 98.0683 26.5315 97.5898 25.5904C97.1273 24.6493 96.896 23.5328 96.896 22.2409C96.896 20.9329 97.1352 19.8244 97.6137 18.9153C98.0923 17.9901 98.7622 17.2883 99.6235 16.8098C100.501 16.3313 101.522 16.0921 102.686 16.0921C103.452 16.0921 104.193 16.2277 104.911 16.4988C105.645 16.77 106.251 17.1528 106.729 17.6472L106.035 19.0349C105.557 18.5723 105.031 18.2294 104.456 18.0061C103.898 17.7828 103.348 17.6711 102.806 17.6711C101.561 17.6711 100.596 18.0619 99.9106 18.8435C99.2247 19.625 98.8818 20.7655 98.8818 22.2648C98.8818 23.7482 99.2247 24.8966 99.9106 25.71C100.596 26.5235 101.561 26.9302 102.806 26.9302C103.332 26.9302 103.874 26.8265 104.432 26.6192C105.007 26.4118 105.541 26.0689 106.035 25.5904L106.729 26.9541C106.235 27.4645 105.621 27.8553 104.887 28.1265C104.153 28.3976 103.42 28.5332 102.686 28.5332ZM113.96 28.5332C112.891 28.5332 111.958 28.286 111.16 27.7915C110.363 27.2811 109.741 26.5634 109.294 25.6382C108.864 24.7131 108.648 23.6046 108.648 22.3126C108.648 21.0047 108.864 19.8882 109.294 18.9631C109.741 18.038 110.363 17.3282 111.16 16.8338C111.958 16.3393 112.891 16.0921 113.96 16.0921C115.044 16.0921 115.977 16.3712 116.759 16.9295C117.556 17.4718 118.083 18.2134 118.338 19.1545H118.051L118.314 16.3074H120.18C120.132 16.77 120.085 17.2405 120.037 17.719C120.005 18.1815 119.989 18.6361 119.989 19.0827V28.3179H118.051V25.4947H118.314C118.059 26.4358 117.533 27.1774 116.735 27.7197C115.938 28.262 115.012 28.5332 113.96 28.5332ZM114.343 26.9541C115.491 26.9541 116.4 26.5634 117.07 25.7818C117.74 24.9843 118.075 23.8279 118.075 22.3126C118.075 20.7814 117.74 19.625 117.07 18.8435C116.4 18.046 115.491 17.6472 114.343 17.6472C113.21 17.6472 112.301 18.046 111.615 18.8435C110.945 19.625 110.61 20.7814 110.61 22.3126C110.61 23.8279 110.945 24.9843 111.615 25.7818C112.301 26.5634 113.21 26.9541 114.343 26.9541ZM123.688 28.3179V19.2024C123.688 18.7239 123.672 18.2374 123.64 17.7429C123.624 17.2485 123.592 16.77 123.544 16.3074H125.411L125.65 19.2263L125.315 19.2502C125.474 18.5324 125.753 17.9423 126.152 17.4797C126.551 17.0172 127.022 16.6743 127.564 16.451C128.106 16.2117 128.672 16.0921 129.263 16.0921C129.502 16.0921 129.709 16.1001 129.885 16.116C130.076 16.132 130.251 16.1718 130.411 16.2356L130.387 17.9582C130.148 17.8785 129.924 17.8306 129.717 17.8147C129.526 17.7828 129.302 17.7668 129.047 17.7668C128.345 17.7668 127.731 17.9343 127.205 18.2693C126.695 18.6042 126.304 19.0349 126.033 19.5612C125.777 20.0876 125.65 20.6458 125.65 21.236V28.3179H123.688ZM137.623 28.5332C135.74 28.5332 134.257 27.9909 133.172 26.9063C132.088 25.8057 131.546 24.2825 131.546 22.3366C131.546 21.0765 131.785 19.9839 132.263 19.0588C132.742 18.1177 133.412 17.392 134.273 16.8816C135.134 16.3553 136.123 16.0921 137.24 16.0921C138.34 16.0921 139.265 16.3234 140.015 16.7859C140.765 17.2485 141.339 17.9104 141.738 18.7717C142.136 19.6171 142.336 20.6219 142.336 21.7863V22.504H133.029V21.2839H141.068L140.661 21.5949C140.661 20.3189 140.374 19.322 139.8 18.6042C139.226 17.8865 138.372 17.5276 137.24 17.5276C136.043 17.5276 135.11 17.9503 134.44 18.7956C133.771 19.625 133.436 20.7495 133.436 22.1691V22.3844C133.436 23.8837 133.802 25.0242 134.536 25.8057C135.286 26.5713 136.331 26.9541 137.67 26.9541C138.388 26.9541 139.058 26.8505 139.68 26.6431C140.318 26.4198 140.924 26.0609 141.498 25.5665L142.168 26.9302C141.642 27.4406 140.972 27.8394 140.159 28.1265C139.361 28.3976 138.516 28.5332 137.623 28.5332Z" fill="#222222"/>
<path d="M49.7922 28.3179H49.3437V28.7665H49.7922V28.3179ZM49.7922 11.4506V11.002H49.3437V11.4506H49.7922ZM60.75 12.7425L60.4499 13.076L60.453 13.0788L60.75 12.7425ZM60.75 19.8244L61.0501 20.1579L61.0531 20.1551L60.75 19.8244ZM51.778 21.1164V20.6678H51.3294V21.1164H51.778ZM51.778 28.3179V28.7665H52.2266V28.3179H51.778ZM51.778 19.4655H51.3294V19.9141H51.778V19.4655ZM59.2427 18.6282L58.9473 18.2905L58.9431 18.2943L59.2427 18.6282ZM59.2427 13.9149L58.9431 14.2488L58.9473 14.2525L59.2427 13.9149ZM51.778 13.0775V12.6289H51.3294V13.0775H51.778ZM50.2408 28.3179V11.4506H49.3437V28.3179H50.2408ZM49.7922 11.8992H56.6588V11.002H49.7922V11.8992ZM56.6588 11.8992C58.3602 11.8992 59.6018 12.3127 60.4499 13.076L61.0501 12.4091C59.9842 11.4498 58.4983 11.002 56.6588 11.002V11.8992ZM60.453 13.0788C61.2955 13.823 61.7369 14.8705 61.7369 16.2835H62.6341C62.6341 14.6659 62.1185 13.3528 61.047 12.4063L60.453 13.0788ZM61.7369 16.2835C61.7369 17.6609 61.2976 18.7139 60.4469 19.4937L61.0531 20.1551C62.1165 19.1804 62.6341 17.8728 62.6341 16.2835H61.7369ZM60.4499 19.491C59.6018 20.2543 58.3602 20.6678 56.6588 20.6678V21.565C58.4983 21.565 59.9842 21.1172 61.0501 20.1579L60.4499 19.491ZM56.6588 20.6678H51.778V21.565H56.6588V20.6678ZM51.3294 21.1164V28.3179H52.2266V21.1164H51.3294ZM51.778 27.8693H49.7922V28.7665H51.778V27.8693ZM51.778 19.9141H56.4674V19.0169H51.778V19.9141ZM56.4674 19.9141C57.7552 19.9141 58.8066 19.6223 59.5423 18.962L58.9431 18.2943C58.4347 18.7506 57.6359 19.0169 56.4674 19.0169V19.9141ZM59.5381 18.9658C60.2917 18.3064 60.6483 17.3914 60.6483 16.2835H59.7511C59.7511 17.1853 59.4698 17.8334 58.9473 18.2905L59.5381 18.9658ZM60.6483 16.2835C60.6483 15.1622 60.2933 14.238 59.5381 13.5773L58.9473 14.2525C59.4682 14.7082 59.7511 15.3632 59.7511 16.2835H60.6483ZM59.5423 13.581C58.8066 12.9208 57.7552 12.6289 56.4674 12.6289V13.5261C57.6359 13.5261 58.4347 13.7925 58.9431 14.2487L59.5423 13.581ZM56.4674 12.6289H51.778V13.5261H56.4674V12.6289ZM51.3294 13.0775V19.4655H52.2266V13.0775H51.3294ZM65.161 28.3179H64.7124V28.7665H65.161V28.3179ZM65.161 10.7089V10.2603H64.7124V10.7089H65.161ZM67.099 10.7089H67.5476V10.2603H67.099V10.7089ZM67.099 28.3179V28.7665H67.5476V28.3179H67.099ZM65.6096 28.3179V10.7089H64.7124V28.3179H65.6096ZM65.161 11.1575H67.099V10.2603H65.161V11.1575ZM66.6504 10.7089V28.3179H67.5476V10.7089H66.6504ZM67.099 27.8693H65.161V28.7665H67.099V27.8693ZM72.6324 27.7915L72.3906 28.1694L72.3961 28.1728L72.6324 27.7915ZM70.7663 25.6382L70.3595 25.8276L70.3623 25.8333L70.7663 25.6382ZM70.7663 18.9631L70.3622 18.7681L70.3596 18.7738L70.7663 18.9631ZM72.6324 16.8338L72.8688 17.215L72.6324 16.8338ZM78.2309 16.9295L77.9701 17.2946L77.9787 17.3004L78.2309 16.9295ZM79.81 19.1545V19.6031H80.3965L80.243 19.0371L79.81 19.1545ZM79.5229 19.1545L79.0762 19.1132L79.0309 19.6031H79.5229V19.1545ZM79.7861 16.3074V15.8588H79.377L79.3394 16.2661L79.7861 16.3074ZM81.6522 16.3074L82.0985 16.3536L82.1496 15.8588H81.6522V16.3074ZM81.5087 17.719L81.0621 17.6743L81.0612 17.6881L81.5087 17.719ZM81.4608 28.3179V28.7665H81.9094V28.3179H81.4608ZM79.5229 28.3179H79.0743V28.7665H79.5229V28.3179ZM79.5229 25.4947V25.0461H79.0743V25.4947H79.5229ZM79.7861 25.4947L80.219 25.6121L80.3725 25.0461H79.7861V25.4947ZM78.207 27.7197L77.9548 27.3488V27.3488L78.207 27.7197ZM78.542 25.7818L78.8826 26.0738L78.8855 26.0703L78.542 25.7818ZM78.542 18.8435L78.1985 19.132L78.2014 19.1354L78.542 18.8435ZM73.087 18.8435L72.7469 18.551L72.7464 18.5515L73.087 18.8435ZM73.087 25.7818L72.7434 26.0704L72.7498 26.0777L73.087 25.7818ZM75.4317 28.0846C74.4347 28.0846 73.5859 27.8548 72.8688 27.4103L72.3961 28.1728C73.274 28.7171 74.2914 28.9818 75.4317 28.9818V28.0846ZM72.8743 27.4137C72.1526 26.9518 71.5839 26.3001 71.1703 25.4432L70.3623 25.8333C70.8418 26.8266 71.5173 27.6104 72.3906 28.1694L72.8743 27.4137ZM71.173 25.4489C70.7762 24.5967 70.5689 23.556 70.5689 22.3126H69.6717C69.6717 23.6532 69.895 24.8296 70.3596 25.8276L71.173 25.4489ZM70.5689 22.3126C70.5689 21.0524 70.7765 20.004 71.173 19.1524L70.3596 18.7738C69.8947 19.7724 69.6717 20.9571 69.6717 22.3126H70.5689ZM71.1703 19.1581C71.5835 18.3022 72.1505 17.6604 72.8688 17.215L72.3961 16.4525C71.5193 16.9961 70.8423 17.7738 70.3623 18.7681L71.1703 19.1581ZM72.8688 17.215C73.5859 16.7704 74.4347 16.5407 75.4317 16.5407V15.6435C74.2914 15.6435 73.274 15.9082 72.3961 16.4525L72.8688 17.215ZM75.4317 16.5407C76.4354 16.5407 77.2744 16.7975 77.9702 17.2945L78.4917 16.5644C77.6244 15.9449 76.5972 15.6435 75.4317 15.6435V16.5407ZM77.9787 17.3004C78.6866 17.7818 79.1495 18.433 79.377 19.2719L80.243 19.0371C79.9601 17.9939 79.3703 17.1618 78.4832 16.5585L77.9787 17.3004ZM79.81 18.7059H79.5229V19.6031H79.81V18.7059ZM79.9696 19.1958L80.2328 16.3487L79.3394 16.2661L79.0762 19.1132L79.9696 19.1958ZM79.7861 16.756H81.6522V15.8588H79.7861V16.756ZM81.206 16.2612C81.1581 16.7243 81.1102 17.1954 81.0623 17.6744L81.9551 17.7636C82.0029 17.2856 82.0507 16.8156 82.0985 16.3536L81.206 16.2612ZM81.0612 17.6881C81.0286 18.1606 81.0122 18.6254 81.0122 19.0827H81.9094C81.9094 18.6468 81.925 18.2025 81.9562 17.7499L81.0612 17.6881ZM81.0122 19.0827V28.3179H81.9094V19.0827H81.0122ZM81.4608 27.8693H79.5229V28.7665H81.4608V27.8693ZM79.9715 28.3179V25.4947H79.0743V28.3179H79.9715ZM79.5229 25.9433H79.7861V25.0461H79.5229V25.9433ZM79.3531 25.3773C79.1256 26.2162 78.6626 26.8674 77.9548 27.3488L78.4593 28.0907C79.3464 27.4874 79.9361 26.6553 80.219 25.6121L79.3531 25.3773ZM77.9548 27.3488C77.2385 27.8359 76.403 28.0846 75.4317 28.0846V28.9818C76.5658 28.9818 77.5805 28.6882 78.4593 28.0907L77.9548 27.3488ZM75.8145 27.4027C77.0769 27.4027 78.117 26.9669 78.8826 26.0737L78.2014 25.4899C77.6272 26.1598 76.8489 26.5055 75.8145 26.5055V27.4027ZM78.8855 26.0703C79.6483 25.1622 79.9954 23.8866 79.9954 22.3126H79.0982C79.0982 23.7692 78.7755 24.8064 78.1985 25.4933L78.8855 26.0703ZM79.9954 22.3126C79.9954 20.725 79.6492 19.446 78.8826 18.5515L78.2014 19.1354C78.7745 19.8041 79.0982 20.8379 79.0982 22.3126H79.9954ZM78.8855 18.5549C78.1209 17.6448 77.0801 17.1986 75.8145 17.1986V18.0958C76.8458 18.0958 77.6232 18.4472 78.1985 19.132L78.8855 18.5549ZM75.8145 17.1986C74.5627 17.1986 73.5251 17.6461 72.7469 18.551L73.4271 19.136C74.0206 18.4459 74.8014 18.0958 75.8145 18.0958V17.1986ZM72.7464 18.5515C71.9797 19.446 71.6336 20.725 71.6336 22.3126H72.5308C72.5308 20.8379 72.8545 19.8041 73.4276 19.1354L72.7464 18.5515ZM71.6336 22.3126C71.6336 23.8866 71.9807 25.1622 72.7435 26.0703L73.4305 25.4933C72.8535 24.8064 72.5308 23.7692 72.5308 22.3126H71.6336ZM72.7498 26.0777C73.5291 26.9656 74.5658 27.4027 75.8145 27.4027V26.5055C74.7982 26.5055 74.0167 26.1611 73.4242 25.4859L72.7498 26.0777ZM84.6124 33.7489L84.1809 33.8713L84.2917 34.2622L84.6917 34.1904L84.6124 33.7489ZM84.1579 32.1459L84.0556 31.7091L83.5981 31.8162L83.7263 32.2683L84.1579 32.1459ZM86.024 31.5239L85.8442 31.1129L85.8364 31.1163L85.8286 31.12L86.024 31.5239ZM87.2921 30.6147L86.9545 30.3193L87.2921 30.6147ZM88.1534 29.1792L87.7428 28.9982L87.7393 29.0066L88.1534 29.1792ZM88.7754 27.7676L89.2233 27.7939L88.3649 27.5867L88.7754 27.7676ZM88.7276 28.581L88.315 28.7572L89.1754 28.6074L88.7276 28.581ZM83.4879 16.3074V15.8588H82.8087L83.0754 16.4835L83.4879 16.3074ZM85.5934 16.3074L86.0084 16.1371L85.8942 15.8588H85.5934V16.3074ZM89.9238 26.8584V27.307H90.5929L90.3388 26.6881L89.9238 26.8584ZM89.3018 26.8584L88.8861 26.6897L88.6356 27.307H89.3018V26.8584ZM93.5844 16.3074V15.8588H93.2823L93.1687 16.1387L93.5844 16.3074ZM95.618 16.3074L96.0307 16.4834L96.2971 15.8588H95.618V16.3074ZM90.0674 29.3227L89.6547 29.1467L89.6533 29.1502L90.0674 29.3227ZM89.0147 31.2367L88.6558 30.9676L88.6519 30.9729L89.0147 31.2367ZM87.7706 32.5048L87.5098 32.1397L87.5024 32.1451L87.4952 32.1507L87.7706 32.5048ZM86.3351 33.2943L86.1817 32.8727L86.3351 33.2943ZM85.044 33.6265L84.5894 32.0235L83.7263 32.2683L84.1809 33.8713L85.044 33.6265ZM84.2601 32.5827C85.0302 32.4025 85.686 32.1858 86.2194 31.9277L85.8286 31.12C85.3731 31.3405 84.7849 31.5384 84.0556 31.7091L84.2601 32.5827ZM86.2038 31.9348C86.7689 31.6876 87.2472 31.3471 87.6297 30.9101L86.9545 30.3193C86.667 30.6479 86.3 30.9135 85.8442 31.1129L86.2038 31.9348ZM87.6297 30.9101C88.0028 30.4836 88.3135 29.9611 88.5675 29.3517L87.7393 29.0066C87.5147 29.5457 87.2512 29.9801 86.9545 30.3193L87.6297 30.9101ZM88.5639 29.3601L89.1859 27.9485L88.3649 27.5867L87.7429 28.9983L88.5639 29.3601ZM88.3276 27.7412L88.2798 28.5547L89.1754 28.6074L89.2233 27.7939L88.3276 27.7412ZM89.1402 28.4049L83.9005 16.1313L83.0754 16.4835L88.315 28.7572L89.1402 28.4049ZM83.4879 16.756H85.5934V15.8588H83.4879V16.756ZM85.1784 16.4777L89.5088 27.0288L90.3388 26.6881L86.0084 16.1371L85.1784 16.4777ZM89.9238 26.4098H89.3018V27.307H89.9238V26.4098ZM89.7174 27.0271L94.0001 16.4761L93.1687 16.1387L88.8861 26.6897L89.7174 27.0271ZM93.5844 16.756H95.618V15.8588H93.5844V16.756ZM95.2054 16.1314L89.6548 29.1468L90.48 29.4987L96.0307 16.4834L95.2054 16.1314ZM89.6533 29.1502C89.3446 29.8911 89.0107 30.4943 88.6558 30.9676L89.3736 31.5059C89.7842 30.9584 90.1522 30.2856 90.4815 29.4953L89.6533 29.1502ZM88.6519 30.9729C88.2923 31.4673 87.9107 31.8534 87.5098 32.1397L88.0313 32.8698C88.5237 32.5181 88.9714 32.0589 89.3775 31.5006L88.6519 30.9729ZM87.4952 32.1507C87.1024 32.4562 86.6653 32.6969 86.1817 32.8727L86.4884 33.7159C87.0575 33.5089 87.5774 33.2233 88.046 32.8589L87.4952 32.1507ZM86.1817 32.8727C85.6823 33.0543 85.1332 33.1997 84.5332 33.3074L84.6917 34.1904C85.3358 34.0748 85.9351 33.9171 86.4884 33.7159L86.1817 32.8727ZM99.5995 27.7676L99.3708 28.1535L99.3739 28.1553L99.5995 27.7676ZM97.5898 25.5904L97.1872 25.7883L97.1899 25.7937L97.5898 25.5904ZM97.6137 18.9153L98.0107 19.1242L98.0122 19.1214L97.6137 18.9153ZM99.6235 16.8098L99.4086 16.416L99.4056 16.4177L99.6235 16.8098ZM104.911 16.4988L104.752 16.9185L104.755 16.9196L104.911 16.4988ZM106.729 17.6472L107.13 17.8478L107.273 17.5636L107.052 17.3353L106.729 17.6472ZM106.035 19.0349L105.724 19.3574L106.163 19.7824L106.437 19.2355L106.035 19.0349ZM104.456 18.0061L104.29 18.4226L104.294 18.4242L104.456 18.0061ZM99.9106 18.8435L99.5734 18.5476L99.9106 18.8435ZM99.9106 25.71L99.5676 25.9992L99.9106 25.71ZM104.432 26.6192L104.28 26.1972L104.276 26.1987L104.432 26.6192ZM106.035 25.5904L106.435 25.387L106.16 24.8457L105.723 25.268L106.035 25.5904ZM106.729 26.9541L107.051 27.2663L107.274 27.0362L107.129 26.7507L106.729 26.9541ZM104.887 28.1265L104.732 27.7057L104.887 28.1265ZM102.686 28.0846C101.572 28.0846 100.623 27.8443 99.8251 27.3798L99.3739 28.1553C100.33 28.7117 101.439 28.9818 102.686 28.9818V28.0846ZM99.8282 27.3817C99.0442 26.9171 98.4318 26.2566 97.9897 25.3871L97.1899 25.7937C97.7048 26.8063 98.4322 27.5973 99.3708 28.1535L99.8282 27.3817ZM97.9924 25.3925C97.5663 24.5257 97.3446 23.4798 97.3446 22.2409H96.4474C96.4474 23.5858 96.6882 24.773 97.1872 25.7883L97.9924 25.3925ZM97.3446 22.2409C97.3446 20.9864 97.5741 19.9537 98.0107 19.1242L97.2168 18.7063C96.6964 19.6951 96.4474 20.8795 96.4474 22.2409H97.3446ZM98.0122 19.1214C98.4526 18.27 99.0617 17.6351 99.8413 17.202L99.4056 16.4177C98.4626 16.9416 97.7319 17.7103 97.2153 18.7092L98.0122 19.1214ZM99.8383 17.2037C100.64 16.7666 101.584 16.5407 102.686 16.5407V15.6435C101.459 15.6435 100.362 15.896 99.4087 16.416L99.8383 17.2037ZM102.686 16.5407C103.397 16.5407 104.085 16.6664 104.752 16.9185L105.069 16.0792C104.301 15.7889 103.506 15.6435 102.686 15.6435V16.5407ZM104.755 16.9196C105.435 17.1706 105.981 17.5193 106.407 17.9592L107.052 17.3353C106.52 16.7863 105.855 16.3693 105.066 16.078L104.755 16.9196ZM106.328 17.4466L105.634 18.8343L106.437 19.2355L107.13 17.8478L106.328 17.4466ZM106.347 18.7123C105.829 18.2117 105.253 17.8346 104.619 17.588L104.294 18.4242C104.808 18.6242 105.285 18.933 105.724 19.3574L106.347 18.7123ZM104.623 17.5896C104.017 17.3474 103.411 17.2225 102.806 17.2225V18.1197C103.285 18.1197 103.779 18.2182 104.29 18.4226L104.623 17.5896ZM102.806 17.2225C101.46 17.2225 100.361 17.6499 99.5734 18.5476L100.248 19.1394C100.832 18.474 101.663 18.1197 102.806 18.1197V17.2225ZM99.5734 18.5476C98.7896 19.4407 98.4332 20.704 98.4332 22.2648H99.3304C99.3304 20.827 99.6598 19.8094 100.248 19.1394L99.5734 18.5476ZM98.4332 22.2648C98.4332 23.8126 98.7909 25.078 99.5676 25.9992L100.254 25.4209C99.6585 24.7151 99.3304 23.6837 99.3304 22.2648H98.4332ZM99.5676 25.9992C100.354 26.9313 101.454 27.3788 102.806 27.3788V26.4816C101.669 26.4816 100.839 26.1157 100.254 25.4209L99.5676 25.9992ZM102.806 27.3788C103.392 27.3788 103.987 27.2632 104.589 27.0397L104.276 26.1987C103.761 26.3899 103.272 26.4816 102.806 26.4816V27.3788ZM104.585 27.0411C105.226 26.8096 105.813 26.4297 106.347 25.9128L105.723 25.268C105.269 25.7081 104.787 26.014 104.28 26.1972L104.585 27.0411ZM105.636 25.7938L106.329 27.1576L107.129 26.7507L106.435 25.387L105.636 25.7938ZM106.407 26.642C105.964 27.0995 105.409 27.4554 104.732 27.7057L105.043 28.5473C105.833 28.2552 106.506 27.8296 107.051 27.2663L106.407 26.642ZM104.732 27.7057C104.044 27.9597 103.363 28.0846 102.686 28.0846V28.9818C103.476 28.9818 104.262 28.8356 105.043 28.5473L104.732 27.7057ZM111.16 27.7915L110.919 28.1694L110.924 28.1728L111.16 27.7915ZM109.294 25.6382L108.888 25.8276L108.89 25.8333L109.294 25.6382ZM109.294 18.9631L108.89 18.7681L108.888 18.7738L109.294 18.9631ZM111.16 16.8338L111.397 17.215L111.16 16.8338ZM116.759 16.9295L116.498 17.2946L116.507 17.3004L116.759 16.9295ZM118.338 19.1545V19.6031H118.924L118.771 19.0371L118.338 19.1545ZM118.051 19.1545L117.604 19.1132L117.559 19.6031H118.051V19.1545ZM118.314 16.3074V15.8588H117.905L117.867 16.2661L118.314 16.3074ZM120.18 16.3074L120.627 16.3536L120.678 15.8588H120.18V16.3074ZM120.037 17.719L119.59 17.6743L119.589 17.6881L120.037 17.719ZM119.989 28.3179V28.7665H120.437V28.3179H119.989ZM118.051 28.3179H117.602V28.7665H118.051V28.3179ZM118.051 25.4947V25.0461H117.602V25.4947H118.051ZM118.314 25.4947L118.747 25.6121L118.901 25.0461H118.314V25.4947ZM116.735 27.7197L116.483 27.3488V27.3488L116.735 27.7197ZM117.07 25.7818L117.411 26.0738L117.413 26.0703L117.07 25.7818ZM117.07 18.8435L116.726 19.132L116.729 19.1354L117.07 18.8435ZM111.615 18.8435L111.275 18.551L111.274 18.5515L111.615 18.8435ZM111.615 25.7818L111.271 26.0704L111.278 26.0777L111.615 25.7818ZM113.96 28.0846C112.963 28.0846 112.114 27.8548 111.397 27.4103L110.924 28.1728C111.802 28.7171 112.819 28.9818 113.96 28.9818V28.0846ZM111.402 27.4137C110.681 26.9518 110.112 26.3001 109.698 25.4432L108.89 25.8333C109.37 26.8266 110.045 27.6104 110.919 28.1694L111.402 27.4137ZM109.701 25.4489C109.304 24.5967 109.097 23.556 109.097 22.3126H108.2C108.2 23.6532 108.423 24.8296 108.888 25.8276L109.701 25.4489ZM109.097 22.3126C109.097 21.0524 109.305 20.004 109.701 19.1524L108.888 18.7738C108.423 19.7724 108.2 20.9571 108.2 22.3126H109.097ZM109.698 19.1581C110.111 18.3022 110.679 17.6604 111.397 17.215L110.924 16.4525C110.047 16.9961 109.37 17.7738 108.89 18.7681L109.698 19.1581ZM111.397 17.215C112.114 16.7704 112.963 16.5407 113.96 16.5407V15.6435C112.819 15.6435 111.802 15.9082 110.924 16.4525L111.397 17.215ZM113.96 16.5407C114.963 16.5407 115.802 16.7975 116.498 17.2945L117.02 16.5644C116.152 15.9449 115.125 15.6435 113.96 15.6435V16.5407ZM116.507 17.3004C117.215 17.7818 117.678 18.433 117.905 19.2719L118.771 19.0371C118.488 17.9939 117.898 17.1618 117.011 16.5585L116.507 17.3004ZM118.338 18.7059H118.051V19.6031H118.338V18.7059ZM118.498 19.1958L118.761 16.3487L117.867 16.2661L117.604 19.1132L118.498 19.1958ZM118.314 16.756H120.18V15.8588H118.314V16.756ZM119.734 16.2612C119.686 16.7243 119.638 17.1954 119.59 17.6744L120.483 17.7636C120.531 17.2856 120.579 16.8156 120.627 16.3536L119.734 16.2612ZM119.589 17.6881C119.557 18.1606 119.54 18.6254 119.54 19.0827H120.437C120.437 18.6468 120.453 18.2025 120.484 17.7499L119.589 17.6881ZM119.54 19.0827V28.3179H120.437V19.0827H119.54ZM119.989 27.8693H118.051V28.7665H119.989V27.8693ZM118.5 28.3179V25.4947H117.602V28.3179H118.5ZM118.051 25.9433H118.314V25.0461H118.051V25.9433ZM117.881 25.3773C117.654 26.2162 117.191 26.8674 116.483 27.3488L116.987 28.0907C117.874 27.4874 118.464 26.6553 118.747 25.6121L117.881 25.3773ZM116.483 27.3488C115.767 27.8359 114.931 28.0846 113.96 28.0846V28.9818C115.094 28.9818 116.109 28.6882 116.987 28.0907L116.483 27.3488ZM114.343 27.4027C115.605 27.4027 116.645 26.9669 117.411 26.0737L116.729 25.4899C116.155 26.1598 115.377 26.5055 114.343 26.5055V27.4027ZM117.413 26.0703C118.176 25.1622 118.523 23.8866 118.523 22.3126H117.626C117.626 23.7692 117.304 24.8064 116.727 25.4933L117.413 26.0703ZM118.523 22.3126C118.523 20.725 118.177 19.446 117.411 18.5515L116.729 19.1354C117.303 19.8041 117.626 20.8379 117.626 22.3126H118.523ZM117.413 18.5549C116.649 17.6448 115.608 17.1986 114.343 17.1986V18.0958C115.374 18.0958 116.151 18.4472 116.727 19.132L117.413 18.5549ZM114.343 17.1986C113.091 17.1986 112.053 17.6461 111.275 18.551L111.955 19.136C112.549 18.4459 113.329 18.0958 114.343 18.0958V17.1986ZM111.274 18.5515C110.508 19.446 110.162 20.725 110.162 22.3126H111.059C111.059 20.8379 111.383 19.8041 111.956 19.1354L111.274 18.5515ZM110.162 22.3126C110.162 23.8866 110.509 25.1622 111.272 26.0703L111.959 25.4933C111.382 24.8064 111.059 23.7692 111.059 22.3126H110.162ZM111.278 26.0777C112.057 26.9656 113.094 27.4027 114.343 27.4027V26.5055C113.326 26.5055 112.545 26.1611 111.952 25.4859L111.278 26.0777ZM123.688 28.3179H123.239V28.7665H123.688V28.3179ZM123.64 17.7429L123.192 17.7574L123.192 17.7646L123.192 17.7718L123.64 17.7429ZM123.544 16.3074V15.8588H123.047L123.098 16.3536L123.544 16.3074ZM125.411 16.3074L125.858 16.2708L125.824 15.8588H125.411V16.3074ZM125.65 19.2263L125.682 19.6737L126.134 19.6414L126.097 19.1896L125.65 19.2263ZM125.315 19.2502L124.877 19.1529L124.746 19.7406L125.347 19.6977L125.315 19.2502ZM126.152 17.4797L126.492 17.7726L126.152 17.4797ZM127.564 16.451L127.735 16.8659L127.745 16.8614L127.564 16.451ZM129.885 16.116L129.844 16.5628L129.847 16.563L129.885 16.116ZM130.411 16.2356L130.859 16.2419L130.864 15.9336L130.578 15.8191L130.411 16.2356ZM130.387 17.9582L130.245 18.3838L130.827 18.5778L130.836 17.9645L130.387 17.9582ZM129.717 17.8147L129.643 18.2572L129.663 18.2604L129.683 18.262L129.717 17.8147ZM127.205 18.2693L126.964 17.8908L126.959 17.8942L127.205 18.2693ZM126.033 19.5612L125.634 19.3557L125.629 19.3655L126.033 19.5612ZM125.65 28.3179V28.7665H126.098V28.3179H125.65ZM124.137 28.3179V19.2024H123.239V28.3179H124.137ZM124.137 19.2024C124.137 18.7139 124.12 18.2178 124.088 17.714L123.192 17.7718C123.224 18.257 123.239 18.7338 123.239 19.2024H124.137ZM124.088 17.7285C124.072 17.2241 124.04 16.735 123.991 16.2612L123.098 16.3536C123.145 16.8049 123.176 17.2728 123.192 17.7574L124.088 17.7285ZM123.544 16.756H125.411V15.8588H123.544V16.756ZM124.963 16.3441L125.203 19.2629L126.097 19.1896L125.858 16.2708L124.963 16.3441ZM125.618 18.7788L125.283 18.8027L125.347 19.6977L125.682 19.6737L125.618 18.7788ZM125.753 19.3475C125.899 18.6874 126.151 18.1687 126.492 17.7726L125.812 17.1868C125.356 17.7158 125.049 18.3775 124.877 19.1529L125.753 19.3475ZM126.492 17.7726C126.847 17.3612 127.26 17.0611 127.735 16.8658L127.393 16.0361C126.783 16.2874 126.255 16.6732 125.812 17.1868L126.492 17.7726ZM127.745 16.8614C128.23 16.6472 128.735 16.5407 129.263 16.5407V15.6435C128.61 15.6435 127.982 15.7762 127.383 16.0405L127.745 16.8614ZM129.263 16.5407C129.493 16.5407 129.686 16.5484 129.844 16.5628L129.925 15.6692C129.732 15.6517 129.511 15.6435 129.263 15.6435V16.5407ZM129.847 16.563C130 16.5757 130.131 16.6067 130.244 16.6521L130.578 15.8191C130.372 15.7369 130.152 15.6882 129.922 15.669L129.847 16.563ZM129.962 16.2294L129.938 17.952L130.836 17.9645L130.859 16.2419L129.962 16.2294ZM130.529 17.5327C130.262 17.4437 130.002 17.3867 129.752 17.3674L129.683 18.262C129.847 18.2746 130.034 18.3133 130.245 18.3838L130.529 17.5327ZM129.791 17.3722C129.569 17.3352 129.32 17.3182 129.047 17.3182V18.2154C129.285 18.2154 129.483 18.2304 129.643 18.2572L129.791 17.3722ZM129.047 17.3182C128.271 17.3182 127.571 17.5045 126.964 17.8908L127.446 18.6477C127.891 18.3641 128.42 18.2154 129.047 18.2154V17.3182ZM126.959 17.8942C126.386 18.2702 125.942 18.7585 125.634 19.3558L126.431 19.7667C126.666 19.3113 127.003 18.9382 127.451 18.6443L126.959 17.8942ZM125.629 19.3655C125.344 19.9534 125.201 20.5787 125.201 21.236H126.098C126.098 20.713 126.211 20.2217 126.436 19.7569L125.629 19.3655ZM125.201 21.236V28.3179H126.098V21.236H125.201ZM125.65 27.8693H123.688V28.7665H125.65V27.8693ZM133.172 26.9063L132.853 27.2212L132.855 27.2235L133.172 26.9063ZM132.263 19.0588L132.662 19.2649L132.663 19.2621L132.263 19.0588ZM134.273 16.8816L134.502 17.2676L134.507 17.2644L134.273 16.8816ZM140.015 16.7859L139.779 17.1677L140.015 16.7859ZM141.738 18.7717L141.331 18.9602L141.332 18.9631L141.738 18.7717ZM142.336 22.504V22.9526H142.784V22.504H142.336ZM133.029 22.504H132.58V22.9526H133.029V22.504ZM133.029 21.2839V20.8353H132.58V21.2839H133.029ZM141.068 21.2839L141.34 21.6402L142.393 20.8353H141.068V21.2839ZM140.661 21.5949H140.212V22.5027L140.934 21.9512L140.661 21.5949ZM139.8 18.6042L139.449 18.8845V18.8845L139.8 18.6042ZM134.44 18.7956L134.789 19.0775L134.792 19.0742L134.44 18.7956ZM134.536 25.8057L134.209 26.1128L134.216 26.1196L134.536 25.8057ZM139.68 26.6431L139.822 27.0687L139.828 27.0665L139.68 26.6431ZM141.498 25.5665L141.901 25.3687L141.645 24.848L141.206 25.2265L141.498 25.5665ZM142.168 26.9302L142.481 27.2523L142.715 27.0252L142.571 26.7324L142.168 26.9302ZM140.159 28.1265L140.303 28.5512L140.308 28.5495L140.159 28.1265ZM137.623 28.0846C135.831 28.0846 134.472 27.5712 133.49 26.5891L132.855 27.2235C134.042 28.4106 135.65 28.9818 137.623 28.9818V28.0846ZM133.492 26.5914C132.51 25.5952 131.994 24.1968 131.994 22.3366H131.097C131.097 24.3682 131.665 26.0163 132.853 27.2212L133.492 26.5914ZM131.994 22.3366C131.994 21.1333 132.222 20.1143 132.662 19.2649L131.865 18.8527C131.347 19.8535 131.097 21.0197 131.097 22.3366H131.994ZM132.663 19.2621C133.105 18.3926 133.718 17.7321 134.502 17.2675L134.044 16.4957C133.106 17.0519 132.378 17.8429 131.863 18.8555L132.663 19.2621ZM134.507 17.2644C135.29 16.7856 136.197 16.5407 137.24 16.5407V15.6435C136.05 15.6435 134.978 15.925 134.039 16.4988L134.507 17.2644ZM137.24 16.5407C138.278 16.5407 139.116 16.7585 139.779 17.1677L140.251 16.4041C139.414 15.8882 138.403 15.6435 137.24 15.6435V16.5407ZM139.779 17.1677C140.448 17.5804 140.966 18.1722 141.331 18.9602L142.145 18.5832C141.712 17.6485 141.081 16.9165 140.251 16.4041L139.779 17.1677ZM141.332 18.9631C141.696 19.7357 141.887 20.6723 141.887 21.7863H142.784C142.784 20.5716 142.576 19.4984 142.143 18.5803L141.332 18.9631ZM141.887 21.7863V22.504H142.784V21.7863H141.887ZM142.336 22.0554H133.029V22.9526H142.336V22.0554ZM133.477 22.504V21.2839H132.58V22.504H133.477ZM133.029 21.7325H141.068V20.8353H133.029V21.7325ZM140.795 20.9275L140.389 21.2385L140.934 21.9512L141.34 21.6402L140.795 20.9275ZM141.11 21.5949C141.11 20.256 140.809 19.1472 140.15 18.324L139.449 18.8845C139.939 19.4968 140.212 20.3817 140.212 21.5949H141.11ZM140.15 18.324C139.471 17.4753 138.474 17.079 137.24 17.079V17.9762C138.271 17.9762 138.98 18.2976 139.449 18.8845L140.15 18.324ZM137.24 17.079C135.924 17.079 134.854 17.5516 134.089 18.517L134.792 19.0742C135.367 18.3489 136.163 17.9762 137.24 17.9762V17.079ZM134.091 18.5138C133.339 19.446 132.987 20.681 132.987 22.1691H133.884C133.884 20.818 134.203 19.8041 134.789 19.0775L134.091 18.5138ZM132.987 22.1691V22.3844H133.884V22.1691H132.987ZM132.987 22.3844C132.987 23.9521 133.371 25.2198 134.209 26.1128L134.863 25.4987C134.234 24.8285 133.884 23.8154 133.884 22.3844H132.987ZM134.216 26.1196C135.07 26.9918 136.242 27.4027 137.67 27.4027V26.5055C136.419 26.5055 135.502 26.1508 134.857 25.4919L134.216 26.1196ZM137.67 27.4027C138.432 27.4027 139.15 27.2927 139.822 27.0687L139.538 26.2175C138.966 26.4083 138.344 26.5055 137.67 26.5055V27.4027ZM139.828 27.0665C140.525 26.8226 141.18 26.4331 141.791 25.9064L141.206 25.2265C140.669 25.6888 140.111 26.017 139.532 26.2197L139.828 27.0665ZM141.096 25.7643L141.766 27.128L142.571 26.7324L141.901 25.3687L141.096 25.7643ZM141.856 26.6082C141.384 27.0663 140.772 27.4341 140.009 27.7034L140.308 28.5495C141.172 28.2446 141.9 27.8149 142.481 27.2523L141.856 26.6082ZM140.014 27.7017C139.266 27.9562 138.47 28.0846 137.623 28.0846V28.9818C138.562 28.9818 139.456 28.8391 140.303 28.5512L140.014 27.7017Z" fill="black"/>
<path fill-rule="evenodd" clip-rule="evenodd" d="M9.34223 8.05466C7.78552 9.50162 6.5429 11.2474 5.68301 13.1732C6.07657 12.777 6.89734 12.8238 10.0548 13.1277C12.0496 13.3198 13.2488 14.2409 14.514 15.2125C16.6047 16.8183 18.8753 18.5622 25.2135 17.382C30.6506 16.3696 33.92 17.1998 35.6772 18.3086C35.6012 17.3765 35.4406 16.4381 35.1899 15.5026C34.9833 14.7315 34.7227 13.9892 34.4133 13.2787C31.3377 13.1347 29.5093 12.9269 28.243 12.7831C26.5052 12.5857 25.8261 12.5085 24.4352 12.8812C21.9438 13.5488 15.5069 11.9483 13.6375 9.95449C12.8563 9.12121 11.1344 8.49452 9.34223 8.05466ZM30.19 7.59907C29.2572 7.66564 28.24 7.79539 27.133 8.00152C20.7949 9.18174 18.5243 7.43783 16.4335 5.83205C15.9253 5.44173 15.4277 5.05957 14.8849 4.72954C15.2367 4.60811 15.5952 4.49822 15.9602 4.40041C21.1324 3.01455 26.3935 4.37977 30.19 7.59907ZM24.0877 34.7323C30.0398 33.1374 34.2723 28.3282 35.4181 22.6727C34.8341 22.7174 34.1381 22.7278 33.3126 22.6947C29.7358 22.5512 27.6983 22.3198 26.3235 22.1636C24.5857 21.9662 23.9065 21.889 22.5156 22.2617C20.0242 22.9293 13.5874 21.3288 11.718 19.335C10.5078 18.0442 7.04055 17.2491 4.55135 16.8763C4.1709 19.0563 4.24756 21.3518 4.85801 23.63C7.10233 32.006 15.7117 36.9766 24.0877 34.7323Z" fill="#F19A7F"/>
</svg>
