<svg width="1440" height="841" viewBox="0 0 1440 841" fill="none" xmlns="http://www.w3.org/2000/svg">
<g clip-path="url(#clip0_1_49)">
<rect y="0.140137" width="1440" height="840.374" fill="#F9F5F0"/>
<path fill-rule="evenodd" clip-rule="evenodd" d="M1081.21 423.806C1045.64 454.093 1016.6 491.53 995.724 533.545C1004.74 525.194 1022.59 527.397 1091.2 538.67C1134.53 545.788 1159.7 568.148 1186.24 591.736C1230.11 630.717 1277.76 673.051 1417.39 655.489C1537.17 640.423 1607.62 663.661 1644.75 691.021C1644.12 669.988 1641.64 648.695 1637.2 627.341C1633.53 609.747 1628.66 592.724 1622.69 576.347C1555.71 568.784 1516.03 561.547 1488.54 556.535C1450.83 549.658 1436.09 546.97 1405.33 553.376C1350.22 564.849 1211.48 519.867 1172.87 472.49C1156.73 452.69 1119.84 436.201 1081.21 423.806ZM1536.75 442.935C1516.31 443.115 1493.96 444.594 1469.56 447.663C1329.93 465.225 1282.29 422.891 1238.42 383.91C1227.75 374.433 1217.31 365.155 1205.82 356.983C1213.64 354.751 1221.59 352.788 1229.67 351.106C1344.08 327.286 1457.42 365.336 1536.75 442.935ZM1373.78 1043.26C1505.43 1015.85 1603.09 913.894 1634.3 788.593C1621.51 788.773 1606.31 788.028 1588.33 786.122C1510.42 777.865 1466.2 769.802 1436.37 764.361C1398.66 757.484 1383.92 754.796 1353.15 761.202C1298.04 772.675 1159.31 727.693 1120.69 680.316C1095.7 649.644 1020.89 626.918 966.972 615.047C956.28 663.43 955.436 715.048 966.259 767.029C1006.05 958.164 1188.51 1081.84 1373.78 1043.26Z" fill="#E9E6DB"/>
</g>
<defs>
<clipPath id="clip0_1_49">
<rect width="1440" height="840.374" fill="white" transform="translate(0 0.140137)"/>
</clipPath>
</defs>
</svg>
