<svg width="483" height="563" viewBox="0 0 483 563" fill="none" xmlns="http://www.w3.org/2000/svg">
<path fill-rule="evenodd" clip-rule="evenodd" d="M163.666 37.1945C126.904 57.2833 94.5667 84.8432 68.5558 117.913C78.0018 112.231 93.2683 117.428 151.445 139.865C188.183 154.035 206.189 178.265 225.184 203.826C256.575 246.069 290.666 291.945 416.464 302.049C524.382 310.716 581.982 343.995 609.584 374.803C612.872 356.222 614.589 337.075 614.589 317.514C614.589 301.398 613.423 285.563 611.174 270.093C553.752 251.21 520.235 237.602 497.023 228.179C465.171 215.248 452.723 210.194 424.54 210.194C374.06 210.194 260.481 145.343 235.241 96.6905C224.693 76.3573 195.317 55.1378 163.666 37.1945ZM560.109 137.256C542.132 133.677 522.24 130.891 500.259 129.126C374.462 119.022 340.371 73.1459 308.98 30.9036C301.348 20.6341 293.877 10.5793 285.285 1.30557C292.556 0.774625 299.897 0.504639 307.299 0.504639C412.099 0.504639 504.646 54.6269 560.109 137.256ZM307.299 634.523C427.894 634.523 532.265 562.857 582.575 458.556C571.309 456.375 558.099 452.943 542.663 447.983C475.772 426.493 438.426 411.332 413.227 401.102C381.375 388.171 368.927 383.117 340.744 383.117C290.264 383.117 176.685 318.266 151.445 269.613C135.105 238.115 73.5847 204.491 28.4156 184.213C10.1851 224.736 0.00933838 269.899 0.00933838 317.514C0.00933838 492.593 137.588 634.523 307.299 634.523Z" fill="#EEE8D8"/>
</svg>
